<?xml version="1.0" encoding="UTF-8" standalone="no"?>
<svg
   xmlns:dc="http://purl.org/dc/elements/1.1/"
   xmlns:cc="http://creativecommons.org/ns#"
   xmlns:rdf="http://www.w3.org/1999/02/22-rdf-syntax-ns#"
   xmlns:svg="http://www.w3.org/2000/svg"
   xmlns="http://www.w3.org/2000/svg"
   version="1.1"
   id="Layer_1"
   x="0px"
   y="0px"
   width="190.000px"
   height="156.115px"
   viewBox="0 0 5453.9087 3585.0108"
   enable-background="new 0 0 850.394 680.314"
   xml:space="preserve"><metadata
   id="metadata17"><rdf:RDF><cc:Work
       rdf:about=""><dc:format>image/svg+xml</dc:format><dc:type
         rdf:resource="http://purl.org/dc/dcmitype/StillImage" /><dc:title></dc:title></cc:Work></rdf:RDF></metadata><defs
   id="defs15">

<marker
   style="overflow:visible"
   id="marker7008"
   refX="0"
   refY="0"
   orient="auto"><path
     transform="scale(0.2)"
     style="fill:#43a57a;fill-opacity:1;fill-rule:evenodd;stroke:#43a57a;stroke-width:1.00000003pt;stroke-opacity:1"
     d="M 5.77,0 -2.88,5 V -5 Z"
     id="path7006" /></marker><marker
   style="overflow:visible"
   id="marker6800"
   refX="0"
   refY="0"
   orient="auto"><path
     transform="scale(-0.6)"
     d="M 8.7185878,4.0337352 -2.2072895,0.01601326 8.7185884,-4.0017078 c -1.7454984,2.3720609 -1.7354408,5.6174519 -6e-7,8.035443 z"
     style="fill:#43a57a;fill-opacity:1;fill-rule:evenodd;stroke:#43a57a;stroke-width:0.625;stroke-linejoin:round;stroke-opacity:1"
     id="path6564" /></marker><marker
   style="overflow:visible"
   id="Arrow1Send"
   refX="0"
   refY="0"
   orient="auto"><path
     transform="matrix(-0.2,0,0,-0.2,-1.2,0)"
     style="fill:#000000;fill-opacity:1;fill-rule:evenodd;stroke:#000000;stroke-width:1.00000003pt;stroke-opacity:1"
     d="M 0,0 5,-5 -12.5,0 5,5 Z"
     id="path923" /></marker><marker
   style="overflow:visible"
   id="marker2030"
   refX="0"
   refY="0"
   orient="auto"><path
     transform="matrix(0.3,0,0,0.3,-0.69,0)"
     d="M 8.7185878,4.0337352 -2.2072895,0.01601326 8.7185884,-4.0017078 c -1.7454984,2.3720609 -1.7354408,5.6174519 -6e-7,8.035443 z"
     style="fill:#000000;fill-opacity:1;fill-rule:evenodd;stroke:#000000;stroke-width:0.625;stroke-linejoin:round;stroke-opacity:1"
     id="path2028" /></marker><marker
   style="overflow:visible"
   id="TriangleOutL"
   refX="0"
   refY="0"
   orient="auto"><path
     transform="scale(0.8)"
     style="fill:#000000;fill-opacity:1;fill-rule:evenodd;stroke:#000000;stroke-width:1.00000003pt;stroke-opacity:1"
     d="M 5.77,0 -2.88,5 V -5 Z"
     id="path1050" /></marker><marker
   style="overflow:visible"
   id="TriangleOutS"
   refX="0"
   refY="0"
   orient="auto"><path
     transform="scale(0.2)"
     style="fill:#000000;fill-opacity:1;fill-rule:evenodd;stroke:#000000;stroke-width:1.00000003pt;stroke-opacity:1"
     d="M 5.77,0 -2.88,5 V -5 Z"
     id="path1056" /></marker><marker
   style="overflow:visible"
   id="Arrow2Sstart"
   refX="0"
   refY="0"
   orient="auto"><path
     transform="matrix(0.3,0,0,0.3,-0.69,0)"
     d="M 8.7185878,4.0337352 -2.2072895,0.01601326 8.7185884,-4.0017078 c -1.7454984,2.3720609 -1.7354408,5.6174519 -6e-7,8.035443 z"
     style="fill:#000000;fill-opacity:1;fill-rule:evenodd;stroke:#000000;stroke-width:0.625;stroke-linejoin:round;stroke-opacity:1"
     id="path938" /></marker><marker
   style="overflow:visible"
   id="Arrow2Mend"
   refX="0"
   refY="0"
   orient="auto"><path
     transform="scale(-0.6)"
     d="M 8.7185878,4.0337352 -2.2072895,0.01601326 8.7185884,-4.0017078 c -1.7454984,2.3720609 -1.7354408,5.6174519 -6e-7,8.035443 z"
     style="fill:#000000;fill-opacity:1;fill-rule:evenodd;stroke:#000000;stroke-width:0.625;stroke-linejoin:round;stroke-opacity:1"
     id="path935" /></marker><marker
   style="overflow:visible"
   id="Arrow2Lend"
   refX="0"
   refY="0"
   orient="auto"><path
     transform="matrix(-1.1,0,0,-1.1,-1.1,0)"
     d="M 8.7185878,4.0337352 -2.2072895,0.01601326 8.7185884,-4.0017078 c -1.7454984,2.3720609 -1.7354408,5.6174519 -6e-7,8.035443 z"
     style="fill:#000000;fill-opacity:1;fill-rule:evenodd;stroke:#000000;stroke-width:0.625;stroke-linejoin:round;stroke-opacity:1"
     id="path929" /></marker><marker
   style="overflow:visible"
   id="Arrow1Lend"
   refX="0"
   refY="0"
   orient="auto"><path
     transform="matrix(-0.8,0,0,-0.8,-10,0)"
     style="fill:#000000;fill-opacity:1;fill-rule:evenodd;stroke:#000000;stroke-width:1.00000003pt;stroke-opacity:1"
     d="M 0,0 5,-5 -12.5,0 5,5 Z"
     id="path911" /></marker><marker
   orient="auto"
   refY="0"
   refX="0"
   id="TriangleOutS-6"
   style="overflow:visible"><path
     id="path1168"
     d="M 5.77,0 -2.88,5 V -5 Z"
     style="fill:#b75caa;fill-opacity:1;fill-rule:evenodd;stroke:#b75caa;stroke-width:1.00000003pt;stroke-opacity:1"
     transform="scale(0.2)" /></marker><marker
   orient="auto"
   refY="0"
   refX="0"
   id="marker1283"
   style="overflow:visible"><path
     id="path1053"
     style="fill:#43a57a;fill-opacity:1;fill-rule:evenodd;stroke:#43a57a;stroke-width:0.625;stroke-linejoin:round;stroke-opacity:1"
     d="M 8.7185878,4.0337352 -2.2072895,0.01601326 8.7185884,-4.0017078 c -1.7454984,2.3720609 -1.7354408,5.6174519 -6e-7,8.035443 z"
     transform="matrix(-0.3,0,0,-0.3,0.69,0)" /></marker><marker
   style="overflow:visible"
   id="marker4243"
   refX="0"
   refY="0"
   orient="auto"><path
     transform="matrix(-0.3,0,0,-0.3,0.69,0)"
     d="M 8.7185878,4.0337352 -2.2072895,0.01601326 8.7185884,-4.0017078 c -1.7454984,2.3720609 -1.7354408,5.6174519 -6e-7,8.035443 z"
     style="fill:#43a57a;fill-opacity:1;fill-rule:evenodd;stroke:#43a57a;stroke-width:0.625;stroke-linejoin:round;stroke-opacity:1"
     id="path4241" /></marker><marker
   style="overflow:visible"
   id="Arrow2Send"
   refX="0"
   refY="0"
   orient="auto"><path
     transform="matrix(-0.3,0,0,-0.3,0.69,0)"
     d="M 8.7185878,4.0337352 -2.2072895,0.01601326 8.7185884,-4.0017078 c -1.7454984,2.3720609 -1.7354408,5.6174519 -6e-7,8.035443 z"
     style="fill:#43a57a;fill-opacity:1;fill-rule:evenodd;stroke:#43a57a;stroke-width:0.625;stroke-linejoin:round;stroke-opacity:1"
     id="path1181" /></marker><marker
   style="overflow:visible"
   id="Arrow2Send-0"
   refX="0"
   refY="0"
   orient="auto"><path
     transform="matrix(-0.3,0,0,-0.3,0.69,0)"
     d="M 8.7185878,4.0337352 -2.2072895,0.01601326 8.7185884,-4.0017078 c -1.7454984,2.3720609 -1.7354408,5.6174519 -6e-7,8.035443 z"
     style="fill:#43a57a;fill-opacity:1;fill-rule:evenodd;stroke:#43a57a;stroke-width:0.625;stroke-linejoin:round;stroke-opacity:1"
     id="path1181-4" /></marker><marker
   style="overflow:visible"
   id="Arrow2Send-0-8"
   refX="0"
   refY="0"
   orient="auto"><path
     transform="matrix(-0.3,0,0,-0.3,0.69,0)"
     d="M 8.7185878,4.0337352 -2.2072895,0.01601326 8.7185884,-4.0017078 c -1.7454984,2.3720609 -1.7354408,5.6174519 -6e-7,8.035443 z"
     style="fill:#43a57a;fill-opacity:1;fill-rule:evenodd;stroke:#43a57a;stroke-width:0.625;stroke-linejoin:round;stroke-opacity:1"
     id="path1181-4-8" /></marker><marker
   style="overflow:visible"
   id="marker4243-7"
   refX="0"
   refY="0"
   orient="auto"><path
     transform="matrix(-0.3,0,0,-0.3,0.69,0)"
     d="M 8.7185878,4.0337352 -2.2072895,0.01601326 8.7185884,-4.0017078 c -1.7454984,2.3720609 -1.7354408,5.6174519 -6e-7,8.035443 z"
     style="fill:#43a57a;fill-opacity:1;fill-rule:evenodd;stroke:#43a57a;stroke-width:0.625;stroke-linejoin:round;stroke-opacity:1"
     id="path4241-7" /></marker><marker
   orient="auto"
   refY="0"
   refX="0"
   id="TriangleOutS-5-5"
   style="overflow:visible"><path
     id="path1168-9-3"
     d="M 5.77,0 -2.88,5 V -5 Z"
     style="fill:#1b8a94;fill-opacity:1;fill-rule:evenodd;stroke:#1b8c97;stroke-width:1.00000003pt;stroke-opacity:1"
     transform="scale(0.2)" /></marker><marker
   orient="auto"
   refY="0"
   refX="0"
   id="TriangleOutS-5-8"
   style="overflow:visible"><path
     id="path1168-9-31"
     d="M 5.77,0 -2.88,5 V -5 Z"
     style="fill:#b75caa;fill-opacity:1;fill-rule:evenodd;stroke:#b75caa;stroke-width:1.00000003pt;stroke-opacity:1"
     transform="scale(0.2)" /></marker><marker
   orient="auto"
   refY="0"
   refX="0"
   id="TriangleOutS-5-8-6"
   style="overflow:visible"><path
     id="path1168-9-31-4"
     d="M 5.77,0 -2.88,5 V -5 Z"
     style="fill:#b75caa;fill-opacity:1;fill-rule:evenodd;stroke:#b75caa;stroke-width:1.00000003pt;stroke-opacity:1"
     transform="scale(0.2)" /></marker><marker
   orient="auto"
   refY="0"
   refX="0"
   id="TriangleOutS-5-8-6-3"
   style="overflow:visible"><path
     id="path1168-9-31-4-3"
     d="M 5.77,0 -2.88,5 V -5 Z"
     style="fill:#b75caa;fill-opacity:1;fill-rule:evenodd;stroke:#b75caa;stroke-width:1.00000003pt;stroke-opacity:1"
     transform="scale(0.2)" /></marker><marker
   style="overflow:visible"
   id="Arrow1Send-6"
   refX="0"
   refY="0"
   orient="auto"><path
     transform="matrix(-0.2,0,0,-0.2,-1.2,0)"
     style="fill:#000000;fill-opacity:1;fill-rule:evenodd;stroke:#000000;stroke-width:1.00000003pt;stroke-opacity:1"
     d="M 0,0 5,-5 -12.5,0 5,5 Z"
     id="path923-4" /></marker><marker
   style="overflow:visible"
   id="marker2030-9"
   refX="0"
   refY="0"
   orient="auto"><path
     transform="matrix(0.3,0,0,0.3,-0.69,0)"
     d="M 8.7185878,4.0337352 -2.2072895,0.01601326 8.7185884,-4.0017078 c -1.7454984,2.3720609 -1.7354408,5.6174519 -6e-7,8.035443 z"
     style="fill:#000000;fill-opacity:1;fill-rule:evenodd;stroke:#000000;stroke-width:0.625;stroke-linejoin:round;stroke-opacity:1"
     id="path2028-5" /></marker><marker
   style="overflow:visible"
   id="TriangleOutL-0"
   refX="0"
   refY="0"
   orient="auto"><path
     transform="scale(0.8)"
     style="fill:#000000;fill-opacity:1;fill-rule:evenodd;stroke:#000000;stroke-width:1.00000003pt;stroke-opacity:1"
     d="M 5.77,0 -2.88,5 V -5 Z"
     id="path1050-4" /></marker><marker
   style="overflow:visible"
   id="TriangleOutS-8"
   refX="0"
   refY="0"
   orient="auto"><path
     transform="scale(0.2)"
     style="fill:#000000;fill-opacity:1;fill-rule:evenodd;stroke:#000000;stroke-width:1.00000003pt;stroke-opacity:1"
     d="M 5.77,0 -2.88,5 V -5 Z"
     id="path1056-8" /></marker><marker
   style="overflow:visible"
   id="Arrow2Sstart-7"
   refX="0"
   refY="0"
   orient="auto"><path
     transform="matrix(0.3,0,0,0.3,-0.69,0)"
     d="M 8.7185878,4.0337352 -2.2072895,0.01601326 8.7185884,-4.0017078 c -1.7454984,2.3720609 -1.7354408,5.6174519 -6e-7,8.035443 z"
     style="fill:#000000;fill-opacity:1;fill-rule:evenodd;stroke:#000000;stroke-width:0.625;stroke-linejoin:round;stroke-opacity:1"
     id="path938-1" /></marker><marker
   style="overflow:visible"
   id="Arrow2Mend-7"
   refX="0"
   refY="0"
   orient="auto"><path
     transform="scale(-0.6)"
     d="M 8.7185878,4.0337352 -2.2072895,0.01601326 8.7185884,-4.0017078 c -1.7454984,2.3720609 -1.7354408,5.6174519 -6e-7,8.035443 z"
     style="fill:#43a57a;fill-opacity:1;fill-rule:evenodd;stroke:#43a57a;stroke-width:0.625;stroke-linejoin:round;stroke-opacity:1"
     id="path935-2" /></marker><marker
   style="overflow:visible"
   id="Arrow2Lend-7"
   refX="0"
   refY="0"
   orient="auto"><path
     transform="matrix(-1.1,0,0,-1.1,-1.1,0)"
     d="M 8.7185878,4.0337352 -2.2072895,0.01601326 8.7185884,-4.0017078 c -1.7454984,2.3720609 -1.7354408,5.6174519 -6e-7,8.035443 z"
     style="fill:#000000;fill-opacity:1;fill-rule:evenodd;stroke:#000000;stroke-width:0.625;stroke-linejoin:round;stroke-opacity:1"
     id="path929-2" /></marker><marker
   style="overflow:visible"
   id="Arrow1Lend-2"
   refX="0"
   refY="0"
   orient="auto"><path
     transform="matrix(-0.8,0,0,-0.8,-10,0)"
     style="fill:#000000;fill-opacity:1;fill-rule:evenodd;stroke:#000000;stroke-width:1.00000003pt;stroke-opacity:1"
     d="M 0,0 5,-5 -12.5,0 5,5 Z"
     id="path911-6" /></marker><marker
   style="overflow:visible"
   id="TriangleOutS-8-0"
   refX="0"
   refY="0"
   orient="auto"><path
     transform="scale(0.2)"
     style="fill:#43a57a;fill-opacity:1;fill-rule:evenodd;stroke:#43a57a;stroke-width:1.00000003pt;stroke-opacity:1"
     d="M 5.77,0 -2.88,5 V -5 Z"
     id="path1056-8-8" /></marker><marker
   style="overflow:visible"
   id="TriangleOutS-8-0-9"
   refX="0"
   refY="0"
   orient="auto"><path
     transform="scale(0.2)"
     style="fill:#43a57a;fill-opacity:1;fill-rule:evenodd;stroke:#43a57a;stroke-width:1.00000003pt;stroke-opacity:1"
     d="M 5.77,0 -2.88,5 V -5 Z"
     id="path1056-8-8-9" /></marker><marker
   orient="auto"
   refY="0"
   refX="0"
   id="marker14918"
   style="overflow:visible"><path
     id="path14916"
     d="M 5.77,0 -2.88,5 V -5 Z"
     style="fill:#b75cab;fill-opacity:0.96078431;fill-rule:evenodd;stroke:#b75cab;stroke-width:1.00000003pt;stroke-opacity:0.96078431"
     transform="scale(0.2)" /></marker><marker
   orient="auto"
   refY="0"
   refX="0"
   id="marker14388"
   style="overflow:visible"><path
     id="path14152"
     style="fill:#b75caa;fill-opacity:1;fill-rule:evenodd;stroke:#b75caa;stroke-width:0.625;stroke-linejoin:round;stroke-opacity:1"
     d="M 8.7185878,4.0337352 -2.2072895,0.01601326 8.7185884,-4.0017078 c -1.7454984,2.3720609 -1.7354408,5.6174519 -6e-7,8.035443 z"
     transform="scale(-0.6)" /></marker><marker
   orient="auto"
   refY="0"
   refX="0"
   id="marker7008-3"
   style="overflow:visible"><path
     id="path7006-0"
     d="M 5.77,0 -2.88,5 V -5 Z"
     style="fill:#ffffff;fill-opacity:1;fill-rule:evenodd;stroke:#43a57a;stroke-width:1.00000003pt;stroke-opacity:1"
     transform="scale(0.2)" /></marker><marker
   orient="auto"
   refY="0"
   refX="0"
   id="marker6800-9"
   style="overflow:visible"><path
     id="path6564-2"
     style="fill:#b75caa;fill-opacity:1;fill-rule:evenodd;stroke:#b75caa;stroke-width:0.625;stroke-linejoin:round;stroke-opacity:1"
     d="M 8.7185878,4.0337352 -2.2072895,0.01601326 8.7185884,-4.0017078 c -1.7454984,2.3720609 -1.7354408,5.6174519 -6e-7,8.035443 z"
     transform="scale(-0.6)" /></marker><marker
   orient="auto"
   refY="0"
   refX="0"
   id="Arrow1Send-5"
   style="overflow:visible"><path
     id="path923-40"
     d="M 0,0 5,-5 -12.5,0 5,5 Z"
     style="fill:#000000;fill-opacity:1;fill-rule:evenodd;stroke:#000000;stroke-width:1.00000003pt;stroke-opacity:1"
     transform="matrix(-0.2,0,0,-0.2,-1.2,0)" /></marker><marker
   orient="auto"
   refY="0"
   refX="0"
   id="marker2030-5"
   style="overflow:visible"><path
     id="path2028-9"
     style="fill:#000000;fill-opacity:1;fill-rule:evenodd;stroke:#000000;stroke-width:0.625;stroke-linejoin:round;stroke-opacity:1"
     d="M 8.7185878,4.0337352 -2.2072895,0.01601326 8.7185884,-4.0017078 c -1.7454984,2.3720609 -1.7354408,5.6174519 -6e-7,8.035443 z"
     transform="matrix(0.3,0,0,0.3,-0.69,0)" /></marker><marker
   orient="auto"
   refY="0"
   refX="0"
   id="TriangleOutL-4"
   style="overflow:visible"><path
     id="path1050-6"
     d="M 5.77,0 -2.88,5 V -5 Z"
     style="fill:#000000;fill-opacity:1;fill-rule:evenodd;stroke:#000000;stroke-width:1.00000003pt;stroke-opacity:1"
     transform="scale(0.8)" /></marker><marker
   orient="auto"
   refY="0"
   refX="0"
   id="TriangleOutS-9"
   style="overflow:visible"><path
     id="path1056-2"
     d="M 5.77,0 -2.88,5 V -5 Z"
     style="fill:#000000;fill-opacity:1;fill-rule:evenodd;stroke:#000000;stroke-width:1.00000003pt;stroke-opacity:1"
     transform="scale(0.2)" /></marker><marker
   orient="auto"
   refY="0"
   refX="0"
   id="Arrow2Sstart-2"
   style="overflow:visible"><path
     id="path938-4"
     style="fill:#000000;fill-opacity:1;fill-rule:evenodd;stroke:#000000;stroke-width:0.625;stroke-linejoin:round;stroke-opacity:1"
     d="M 8.7185878,4.0337352 -2.2072895,0.01601326 8.7185884,-4.0017078 c -1.7454984,2.3720609 -1.7354408,5.6174519 -6e-7,8.035443 z"
     transform="matrix(0.3,0,0,0.3,-0.69,0)" /></marker><marker
   orient="auto"
   refY="0"
   refX="0"
   id="Arrow2Mend-77"
   style="overflow:visible"><path
     id="path935-5"
     style="fill:#000000;fill-opacity:1;fill-rule:evenodd;stroke:#000000;stroke-width:0.625;stroke-linejoin:round;stroke-opacity:1"
     d="M 8.7185878,4.0337352 -2.2072895,0.01601326 8.7185884,-4.0017078 c -1.7454984,2.3720609 -1.7354408,5.6174519 -6e-7,8.035443 z"
     transform="scale(-0.6)" /></marker><marker
   orient="auto"
   refY="0"
   refX="0"
   id="Arrow2Lend-4"
   style="overflow:visible"><path
     id="path929-8"
     style="fill:#000000;fill-opacity:1;fill-rule:evenodd;stroke:#000000;stroke-width:0.625;stroke-linejoin:round;stroke-opacity:1"
     d="M 8.7185878,4.0337352 -2.2072895,0.01601326 8.7185884,-4.0017078 c -1.7454984,2.3720609 -1.7354408,5.6174519 -6e-7,8.035443 z"
     transform="matrix(-1.1,0,0,-1.1,-1.1,0)" /></marker><marker
   orient="auto"
   refY="0"
   refX="0"
   id="Arrow1Lend-1"
   style="overflow:visible"><path
     id="path911-2"
     d="M 0,0 5,-5 -12.5,0 5,5 Z"
     style="fill:#000000;fill-opacity:1;fill-rule:evenodd;stroke:#000000;stroke-width:1.00000003pt;stroke-opacity:1"
     transform="matrix(-0.8,0,0,-0.8,-10,0)" /></marker><marker
   style="overflow:visible"
   id="TriangleOutS-6-8"
   refX="0"
   refY="0"
   orient="auto"><path
     transform="scale(0.2)"
     style="fill:#b75caa;fill-opacity:1;fill-rule:evenodd;stroke:#b75caa;stroke-width:1.00000003pt;stroke-opacity:1"
     d="M 5.77,0 -2.88,5 V -5 Z"
     id="path1168-9" /></marker><marker
   style="overflow:visible"
   id="marker1283-3"
   refX="0"
   refY="0"
   orient="auto"><path
     transform="matrix(-0.3,0,0,-0.3,0.69,0)"
     d="M 8.7185878,4.0337352 -2.2072895,0.01601326 8.7185884,-4.0017078 c -1.7454984,2.3720609 -1.7354408,5.6174519 -6e-7,8.035443 z"
     style="fill:#43a57a;fill-opacity:1;fill-rule:evenodd;stroke:#43a57a;stroke-width:0.625;stroke-linejoin:round;stroke-opacity:1"
     id="path1053-6" /></marker><marker
   orient="auto"
   refY="0"
   refX="0"
   id="marker4243-8"
   style="overflow:visible"><path
     id="path4241-0"
     style="fill:#43a57a;fill-opacity:1;fill-rule:evenodd;stroke:#43a57a;stroke-width:0.625;stroke-linejoin:round;stroke-opacity:1"
     d="M 8.7185878,4.0337352 -2.2072895,0.01601326 8.7185884,-4.0017078 c -1.7454984,2.3720609 -1.7354408,5.6174519 -6e-7,8.035443 z"
     transform="matrix(-0.3,0,0,-0.3,0.69,0)" /></marker><marker
   orient="auto"
   refY="0"
   refX="0"
   id="Arrow2Send-2"
   style="overflow:visible"><path
     id="path1181-1"
     style="fill:#43a57a;fill-opacity:1;fill-rule:evenodd;stroke:#43a57a;stroke-width:0.625;stroke-linejoin:round;stroke-opacity:1"
     d="M 8.7185878,4.0337352 -2.2072895,0.01601326 8.7185884,-4.0017078 c -1.7454984,2.3720609 -1.7354408,5.6174519 -6e-7,8.035443 z"
     transform="matrix(-0.3,0,0,-0.3,0.69,0)" /></marker><marker
   orient="auto"
   refY="0"
   refX="0"
   id="Arrow2Send-0-0"
   style="overflow:visible"><path
     id="path1181-4-5"
     style="fill:#43a57a;fill-opacity:1;fill-rule:evenodd;stroke:#43a57a;stroke-width:0.625;stroke-linejoin:round;stroke-opacity:1"
     d="M 8.7185878,4.0337352 -2.2072895,0.01601326 8.7185884,-4.0017078 c -1.7454984,2.3720609 -1.7354408,5.6174519 -6e-7,8.035443 z"
     transform="matrix(-0.3,0,0,-0.3,0.69,0)" /></marker><marker
   orient="auto"
   refY="0"
   refX="0"
   id="Arrow2Send-0-8-1"
   style="overflow:visible"><path
     id="path1181-4-8-1"
     style="fill:#43a57a;fill-opacity:1;fill-rule:evenodd;stroke:#43a57a;stroke-width:0.625;stroke-linejoin:round;stroke-opacity:1"
     d="M 8.7185878,4.0337352 -2.2072895,0.01601326 8.7185884,-4.0017078 c -1.7454984,2.3720609 -1.7354408,5.6174519 -6e-7,8.035443 z"
     transform="matrix(-0.3,0,0,-0.3,0.69,0)" /></marker><marker
   orient="auto"
   refY="0"
   refX="0"
   id="marker4243-7-0"
   style="overflow:visible"><path
     id="path4241-7-8"
     style="fill:#43a57a;fill-opacity:1;fill-rule:evenodd;stroke:#43a57a;stroke-width:0.625;stroke-linejoin:round;stroke-opacity:1"
     d="M 8.7185878,4.0337352 -2.2072895,0.01601326 8.7185884,-4.0017078 c -1.7454984,2.3720609 -1.7354408,5.6174519 -6e-7,8.035443 z"
     transform="matrix(-0.3,0,0,-0.3,0.69,0)" /></marker><marker
   style="overflow:visible"
   id="TriangleOutS-5-5-5"
   refX="0"
   refY="0"
   orient="auto"><path
     transform="scale(0.2)"
     style="fill:#1b8a94;fill-opacity:1;fill-rule:evenodd;stroke:#1b8c97;stroke-width:1.00000003pt;stroke-opacity:1"
     d="M 5.77,0 -2.88,5 V -5 Z"
     id="path1168-9-3-0" /></marker><marker
   style="overflow:visible"
   id="TriangleOutS-5-8-64"
   refX="0"
   refY="0"
   orient="auto"><path
     transform="scale(0.2)"
     style="fill:#b75caa;fill-opacity:1;fill-rule:evenodd;stroke:#b75caa;stroke-width:1.00000003pt;stroke-opacity:1"
     d="M 5.77,0 -2.88,5 V -5 Z"
     id="path1168-9-31-6" /></marker><marker
   style="overflow:visible"
   id="TriangleOutS-5-8-6-2"
   refX="0"
   refY="0"
   orient="auto"><path
     transform="scale(0.2)"
     style="fill:#b75caa;fill-opacity:1;fill-rule:evenodd;stroke:#b75caa;stroke-width:1.00000003pt;stroke-opacity:1"
     d="M 5.77,0 -2.88,5 V -5 Z"
     id="path1168-9-31-4-5" /></marker><marker
   style="overflow:visible"
   id="TriangleOutS-5-8-6-3-8"
   refX="0"
   refY="0"
   orient="auto"><path
     transform="scale(0.2)"
     style="fill:#b75caa;fill-opacity:1;fill-rule:evenodd;stroke:#b75caa;stroke-width:1.00000003pt;stroke-opacity:1"
     d="M 5.77,0 -2.88,5 V -5 Z"
     id="path1168-9-31-4-3-6" /></marker><marker
   orient="auto"
   refY="0"
   refX="0"
   id="Arrow1Send-6-2"
   style="overflow:visible"><path
     id="path923-4-8"
     d="M 0,0 5,-5 -12.5,0 5,5 Z"
     style="fill:#000000;fill-opacity:1;fill-rule:evenodd;stroke:#000000;stroke-width:1.00000003pt;stroke-opacity:1"
     transform="matrix(-0.2,0,0,-0.2,-1.2,0)" /></marker><marker
   orient="auto"
   refY="0"
   refX="0"
   id="marker2030-9-4"
   style="overflow:visible"><path
     id="path2028-5-7"
     style="fill:#000000;fill-opacity:1;fill-rule:evenodd;stroke:#000000;stroke-width:0.625;stroke-linejoin:round;stroke-opacity:1"
     d="M 8.7185878,4.0337352 -2.2072895,0.01601326 8.7185884,-4.0017078 c -1.7454984,2.3720609 -1.7354408,5.6174519 -6e-7,8.035443 z"
     transform="matrix(0.3,0,0,0.3,-0.69,0)" /></marker><marker
   orient="auto"
   refY="0"
   refX="0"
   id="TriangleOutL-0-2"
   style="overflow:visible"><path
     id="path1050-4-4"
     d="M 5.77,0 -2.88,5 V -5 Z"
     style="fill:#b75caa;fill-opacity:1;fill-rule:evenodd;stroke:#b75caa;stroke-width:1.00000003pt;stroke-opacity:1"
     transform="scale(0.8)" /></marker><marker
   orient="auto"
   refY="0"
   refX="0"
   id="Arrow2Sstart-7-0"
   style="overflow:visible"><path
     id="path938-1-6"
     style="fill:#000000;fill-opacity:1;fill-rule:evenodd;stroke:#000000;stroke-width:0.625;stroke-linejoin:round;stroke-opacity:1"
     d="M 8.7185878,4.0337352 -2.2072895,0.01601326 8.7185884,-4.0017078 c -1.7454984,2.3720609 -1.7354408,5.6174519 -6e-7,8.035443 z"
     transform="matrix(0.3,0,0,0.3,-0.69,0)" /></marker><marker
   orient="auto"
   refY="0"
   refX="0"
   id="Arrow2Mend-7-2"
   style="overflow:visible"><path
     id="path935-2-9"
     style="fill:#43a57a;fill-opacity:1;fill-rule:evenodd;stroke:#43a57a;stroke-width:0.625;stroke-linejoin:round;stroke-opacity:1"
     d="M 8.7185878,4.0337352 -2.2072895,0.01601326 8.7185884,-4.0017078 c -1.7454984,2.3720609 -1.7354408,5.6174519 -6e-7,8.035443 z"
     transform="scale(-0.6)" /></marker><marker
   orient="auto"
   refY="0"
   refX="0"
   id="Arrow2Lend-7-9"
   style="overflow:visible"><path
     id="path929-2-0"
     style="fill:#000000;fill-opacity:1;fill-rule:evenodd;stroke:#000000;stroke-width:0.625;stroke-linejoin:round;stroke-opacity:1"
     d="M 8.7185878,4.0337352 -2.2072895,0.01601326 8.7185884,-4.0017078 c -1.7454984,2.3720609 -1.7354408,5.6174519 -6e-7,8.035443 z"
     transform="matrix(-1.1,0,0,-1.1,-1.1,0)" /></marker><marker
   orient="auto"
   refY="0"
   refX="0"
   id="Arrow1Lend-2-8"
   style="overflow:visible"><path
     id="path911-6-1"
     d="M 0,0 5,-5 -12.5,0 5,5 Z"
     style="fill:#000000;fill-opacity:1;fill-rule:evenodd;stroke:#000000;stroke-width:1.00000003pt;stroke-opacity:1"
     transform="matrix(-0.8,0,0,-0.8,-10,0)" /></marker><marker
   orient="auto"
   refY="0"
   refX="0"
   id="TriangleOutS-8-0-3"
   style="overflow:visible"><path
     id="path1056-8-8-1"
     d="M 5.77,0 -2.88,5 V -5 Z"
     style="fill:#ffffff;fill-opacity:1;fill-rule:evenodd;stroke:#43a57a;stroke-width:1.00000003pt;stroke-opacity:1"
     transform="scale(0.2)" /></marker><marker
   orient="auto"
   refY="0"
   refX="0"
   id="TriangleOutS-8-0-9-1"
   style="overflow:visible"><path
     id="path1056-8-8-9-0"
     d="M 5.77,0 -2.88,5 V -5 Z"
     style="fill:#43a57a;fill-opacity:1;fill-rule:evenodd;stroke:#43a57a;stroke-width:1.00000003pt;stroke-opacity:1"
     transform="scale(0.2)" /></marker><marker
   orient="auto"
   refY="0"
   refX="0"
   id="TriangleOutS-8-4"
   style="overflow:visible"><path
     id="path1056-8-6"
     d="M 5.77,0 -2.88,5 V -5 Z"
     style="fill:#b75caa;fill-opacity:1;fill-rule:evenodd;stroke:#b75caa;stroke-width:1.00000003pt;stroke-opacity:1"
     transform="scale(0.2)" /></marker><marker
   orient="auto"
   refY="0"
   refX="0"
   id="TriangleOutS-8-2"
   style="overflow:visible"><path
     id="path1056-8-2"
     d="M 5.77,0 -2.88,5 V -5 Z"
     style="fill:#b75caa;fill-opacity:1;fill-rule:evenodd;stroke:#b75caa;stroke-width:1.00000003pt;stroke-opacity:1"
     transform="scale(0.2)" /></marker><marker
   orient="auto"
   refY="0"
   refX="0"
   id="TriangleOutS-8-2-7"
   style="overflow:visible"><path
     id="path1056-8-2-7"
     d="M 5.77,0 -2.88,5 V -5 Z"
     style="fill:#b75caa;fill-opacity:1;fill-rule:evenodd;stroke:#b75caa;stroke-width:1.00000003pt;stroke-opacity:1"
     transform="scale(0.2)" /></marker><marker
   orient="auto"
   refY="0"
   refX="0"
   id="TriangleOutS-8-2-4"
   style="overflow:visible"><path
     id="path1056-8-2-8"
     d="M 5.77,0 -2.88,5 V -5 Z"
     style="fill:#b75caa;fill-opacity:1;fill-rule:evenodd;stroke:#b75caa;stroke-width:1.00000003pt;stroke-opacity:1"
     transform="scale(0.2)" /></marker><marker
   orient="auto"
   refY="0"
   refX="0"
   id="marker14918-9"
   style="overflow:visible"><path
     id="path14916-3"
     d="M 5.77,0 -2.88,5 V -5 Z"
     style="fill:#b75cab;fill-opacity:0.96078431;fill-rule:evenodd;stroke:#b75cab;stroke-width:1.00000003pt;stroke-opacity:0.96078431"
     transform="scale(0.2)" /></marker><marker
   orient="auto"
   refY="0"
   refX="0"
   id="marker14918-9-8"
   style="overflow:visible"><path
     id="path14916-3-0"
     d="M 5.77,0 -2.88,5 V -5 Z"
     style="fill:#b75cab;fill-opacity:0.96078431;fill-rule:evenodd;stroke:#b75cab;stroke-width:1.00000003pt;stroke-opacity:0.96078431"
     transform="scale(0.2)" /></marker></defs>

<g
   id="g1726"><text
     xml:space="preserve"
     style="font-style:normal;font-variant:normal;font-weight:normal;font-stretch:normal;font-size:1882.05px;line-height:1.25;font-family:monospace;-inkscape-font-specification:monospace;font-variant-ligatures:normal;font-variant-caps:normal;font-variant-numeric:normal;font-feature-settings:normal;text-align:start;letter-spacing:0px;word-spacing:0px;writing-mode:lr-tb;text-anchor:start;fill:#3970b7;fill-opacity:1;stroke:none;stroke-width:156.838;"
     x="965.46704"
     y="1907.2324"
     id="text857-2"><tspan
       id="tspan855-8"
       x="965.46704"
       y="1907.2324"
       style="font-style:normal;font-variant:normal;font-weight:900;font-stretch:normal;font-size:1882.05px;font-family:Nunito;-inkscape-font-specification:'Nunito, Heavy';font-variant-ligatures:normal;font-variant-caps:normal;font-variant-numeric:normal;font-variant-east-asian:normal;fill:#3970b7;fill-opacity:1;stroke-width:156.838;">sms</tspan></text><path
     id="rect913"
     style="fill:none;fill-opacity:1;stroke:#335a90;stroke-width:360.201;stroke-linecap:round;stroke-miterlimit:2.6131;stroke-dasharray:none;stroke-dashoffset:3.09983;stroke-opacity:1;paint-order:stroke fill markers"
     d="m 3850.1853,3734.0981 c -2.797,-232.6726 31.6611,120.8508 26.8153,118.143 -68.9738,-38.5431 -982.762,-722.3552 -982.762,-722.3552 l -1443.8173,0.3305 C 744.79373,3130.3785 180.10027,2554.9762 180.10027,1849.3477 v -843.6801 c 0,-705.62846 568.0692,-1273.69761 1273.69763,-1273.69761 h 2546.3133 c 705.6284,0 1273.6975,568.06915 1273.6975,1273.69761 v 843.6803 c 0,705.6285 -568.2255,1258.8459 -1273.6975,1273.6976 l -122.1897,2.5723 c 0,0 11.3178,615.0234 4.3905,727.4229" /></g></svg>
